<?xml version="1.0" standalone="no"?>
<!DOCTYPE svg PUBLIC "-//W3C//DTD SVG 20010904//EN"
 "http://www.w3.org/TR/2001/REC-SVG-20010904/DTD/svg10.dtd">
<svg version="1.0" xmlns="http://www.w3.org/2000/svg"
 width="349.000000pt" height="200.000000pt" viewBox="0 0 349.000000 200.000000"
 preserveAspectRatio="xMidYMid meet">

<g transform="translate(0.000000,200.000000) scale(0.100000,-0.100000)"
fill="#000000" stroke="none">
<path d="M1970 1415 l0 -76 -30 16 c-65 34 -144 6 -181 -65 -52 -97 14 -220
117 -220 25 0 55 5 67 11 16 9 22 9 25 0 2 -6 17 -11 33 -11 l29 0 0 210 0
210 -30 0 -30 0 0 -75z m-29 -134 c32 -33 37 -67 14 -110 -15 -31 -33 -41 -70
-41 -37 0 -55 10 -71 42 -21 40 -11 91 23 118 36 28 69 25 104 -9z"/>
<path d="M1165 1360 c-33 -13 -72 -62 -83 -102 -11 -38 -4 -87 17 -126 31 -59
135 -81 198 -42 31 18 72 79 56 81 -27 4 -61 -5 -79 -22 -51 -47 -134 -5 -134
68 1 42 13 63 47 81 34 18 62 14 89 -13 15 -15 36 -25 54 -25 35 0 36 5 10 48
-32 52 -116 77 -175 52z"/>
<path d="M1483 1355 c-60 -26 -95 -114 -74 -185 18 -59 73 -100 135 -100 89 0
146 59 146 152 0 108 -106 177 -207 133z m108 -58 c69 -53 41 -167 -40 -167
-61 0 -100 56 -81 116 19 56 81 82 121 51z"/>
<path d="M2169 1347 c-62 -41 -87 -132 -54 -196 28 -54 71 -81 130 -81 59 0
102 27 130 81 49 94 -25 219 -130 219 -27 0 -54 -8 -76 -23z m129 -60 c69 -73
4 -189 -84 -152 -36 15 -59 63 -49 102 17 69 90 96 133 50z"/>
<path d="M1530 900 c0 -38 -2 -70 -4 -70 -2 0 -20 7 -41 16 -43 17 -86 12
-128 -18 -38 -27 -57 -69 -57 -125 0 -111 104 -184 195 -137 19 10 31 11 33 5
2 -6 17 -11 33 -11 l29 0 0 205 0 205 -30 0 -30 0 0 -70z m-36 -129 c46 -41
39 -119 -14 -146 -41 -21 -58 -19 -91 14 -80 81 19 207 105 132z"/>
<path d="M736 850 c-57 -18 -106 -85 -106 -147 0 -72 76 -153 144 -153 58 0
136 56 136 96 0 23 -50 16 -82 -11 -47 -40 -100 -27 -124 31 -39 94 72 176
135 100 15 -18 71 -22 71 -6 0 17 -30 58 -54 74 -31 20 -84 27 -120 16z"/>
<path d="M1044 841 c-54 -25 -84 -74 -84 -138 0 -165 217 -210 276 -58 49 130
-71 253 -192 196z m90 -52 c33 -16 58 -68 50 -108 -8 -37 -46 -71 -81 -71 -38
0 -83 51 -83 95 0 27 8 44 29 66 32 32 47 35 85 18z"/>
<path d="M1753 849 c-40 -12 -79 -58 -94 -111 -27 -102 76 -209 176 -184 40
10 94 64 106 107 21 70 -20 157 -87 185 -37 16 -55 16 -101 3z m96 -75 c26
-22 31 -33 31 -70 0 -85 -78 -124 -134 -68 -38 38 -36 95 3 135 36 36 60 37
100 3z"/>
<path d="M933 443 c9 -2 23 -2 30 0 6 3 -1 5 -18 5 -16 0 -22 -2 -12 -5z"/>
</g>
</svg>
